<svg width="36" height="36" viewBox="0 0 36 36" fill="none" xmlns="http://www.w3.org/2000/svg">
<path fill-rule="evenodd" clip-rule="evenodd" d="M17.9991 0C21.3527 0.0378 24.3804 0.862197 27.086 2.4714C29.7591 4.0482 31.9822 6.2856 33.5429 8.9676C35.1432 11.6892 35.9622 14.7366 36 18.108C35.9046 22.7232 34.4501 26.6652 31.633 29.9322C28.8158 33.201 25.2103 35.2224 21.4751 35.9982V23.0598H25.0051L25.8043 17.9748H20.458V14.6448C20.4292 13.9536 20.647 13.2768 21.0737 12.7332C21.5003 12.1878 22.2545 11.9016 23.3328 11.8746H26.5603V7.41961C26.5135 7.40521 26.0743 7.3458 25.2427 7.2432C24.2976 7.1334 23.349 7.074 22.3985 7.0668C20.2474 7.0776 18.5445 7.6842 17.2935 8.8884C16.0424 10.0926 15.4016 11.8332 15.3746 14.112V17.9766H11.3064V23.0616H15.3746V36C10.7897 35.2242 7.18235 33.2028 4.36701 29.934C1.55167 26.6652 0.0954048 22.7232 0 18.1098C0.0378019 14.7366 0.856836 11.6892 2.45712 8.9694C4.0178 6.2874 6.24091 4.05 8.91404 2.4732C11.6196 0.863998 14.6473 0.0396018 18.0009 0.00180176L17.9991 0Z" fill="white"/>
</svg>
