<svg width="36" height="36" viewBox="0 0 36 36" fill="none" xmlns="http://www.w3.org/2000/svg">
<path d="M21.4452 18C21.4452 19.9026 19.9026 21.4452 18 21.4452C16.0974 21.4452 14.5548 19.9026 14.5548 18C14.5548 16.0974 16.0974 14.5548 18 14.5548C19.9026 14.5548 21.4452 16.0974 21.4452 18ZM26.0568 11.9034C25.8912 11.4552 25.6266 11.0484 25.2828 10.7154C24.9498 10.3716 24.543 10.107 24.0948 9.9414C23.7312 9.7992 23.184 9.6318 22.176 9.585C21.0852 9.5346 20.7594 9.5238 18 9.5238C15.2406 9.5238 14.913 9.5346 13.824 9.5832C12.816 9.63 12.2688 9.7974 11.9052 9.9396C11.457 10.1052 11.0502 10.3698 10.7172 10.7136C10.3734 11.0466 10.1088 11.4534 9.9432 11.9016C9.801 12.2652 9.6336 12.8124 9.5868 13.8204C9.5364 14.9094 9.5256 15.237 9.5256 17.9964C9.5256 20.7558 9.5364 21.0834 9.5868 22.1724C9.6318 23.1804 9.801 23.7276 9.9432 24.0912C10.1088 24.5394 10.3734 24.9462 10.7172 25.2792C11.0502 25.623 11.457 25.8876 11.9052 26.0532C12.2688 26.1954 12.816 26.3628 13.824 26.4096C14.913 26.46 15.2406 26.469 18 26.469C20.7594 26.469 21.087 26.4582 22.176 26.4096C23.184 26.3646 23.7312 26.1954 24.0948 26.0532C24.9966 25.7058 25.7094 24.993 26.0568 24.0912C26.199 23.7276 26.3664 23.1804 26.4132 22.1724C26.4636 21.0816 26.4726 20.7558 26.4726 17.9964C26.4726 15.237 26.4618 14.9094 26.4132 13.8204C26.3682 12.8124 26.199 12.2652 26.0568 11.9016V11.9034ZM18 23.3064C15.0678 23.3064 12.6918 20.9304 12.6918 17.9982C12.6918 15.066 15.0678 12.69 18 12.69C20.9322 12.69 23.3082 15.066 23.3082 17.9982C23.3082 20.9304 20.9322 23.3064 18 23.3064ZM23.517 13.7214C22.8312 13.7214 22.2768 13.1652 22.2768 12.4812C22.2768 11.7972 22.833 11.241 23.517 11.241C24.201 11.241 24.7572 11.7972 24.7572 12.4812C24.7572 13.167 24.201 13.7214 23.517 13.7214ZM18 0C8.0604 0 0 8.0604 0 18C0 27.9396 8.0604 36 18 36C27.9396 36 36 27.9396 36 18C36 8.0604 27.9396 0 18 0ZM28.2744 22.2606C28.224 23.3604 28.0494 24.1128 27.7938 24.7698C27.2574 26.1576 26.1594 27.2556 24.7716 27.792C24.1146 28.0476 23.3622 28.2222 22.2624 28.2726C21.1608 28.323 20.808 28.3356 18.0018 28.3356C15.1956 28.3356 14.8428 28.323 13.7394 28.2726C12.6396 28.2222 11.8872 28.0476 11.2302 27.792C10.5408 27.5328 9.91621 27.126 9.39961 26.6004C8.87401 26.0838 8.46721 25.4592 8.20801 24.7698C7.95241 24.1128 7.7778 23.3604 7.7274 22.2606C7.677 21.159 7.6644 20.8062 7.6644 17.9982C7.6644 15.1902 7.677 14.8392 7.7274 13.7376C7.7778 12.6378 7.95241 11.8854 8.20801 11.2284C8.46721 10.539 8.874 9.9144 9.4014 9.3978C9.918 8.8722 10.5426 8.4654 11.232 8.2062C11.889 7.9506 12.6414 7.776 13.7412 7.7256C14.8428 7.6752 15.1956 7.6626 18.0018 7.6626C20.808 7.6626 21.1608 7.6752 22.2624 7.7256C23.3622 7.776 24.1146 7.9506 24.7716 8.2062C25.461 8.4654 26.0856 8.8722 26.6022 9.3996C27.1278 9.9162 27.5346 10.5408 27.7938 11.2302C28.0494 11.8872 28.224 12.6396 28.2744 13.7394C28.3248 14.841 28.3356 15.1938 28.3356 18C28.3356 20.8062 28.323 21.159 28.2726 22.2606H28.2744Z" fill="white"/>
</svg>
