<svg width="28" height="28" viewBox="0 0 28 28" fill="none" xmlns="http://www.w3.org/2000/svg">
<g clip-path="url(#clip0_1_3200)">
<path d="M10.2084 20.5474V25.9584C10.2084 26.3364 10.451 26.6712 10.8104 26.7902C10.9002 26.8194 10.9924 26.8334 11.0834 26.8334C11.3564 26.8334 11.62 26.705 11.788 26.4764L14.9532 22.169L10.2084 20.5474Z" fill="white"/>
<path d="M27.6326 0.16227C27.3642 -0.0278966 27.0119 -0.0535633 26.7202 0.0992701L0.470219 13.8076C0.159885 13.9698 -0.0232814 14.3011 0.00238522 14.6499C0.0292186 14.9999 0.261385 15.2986 0.591552 15.4118L7.88905 17.9061L23.4302 4.61777L11.4042 19.1066L23.6344 23.2868C23.7254 23.3171 23.8211 23.3334 23.9167 23.3334C24.0754 23.3334 24.2329 23.2903 24.3717 23.2063C24.5934 23.0709 24.7439 22.8434 24.7824 22.5879L27.9907 1.0046C28.0386 0.677937 27.9009 0.353603 27.6326 0.16227Z" fill="white"/>
</g>
<defs>
<clipPath id="clip0_1_3200">
<rect width="28" height="28" fill="white"/>
</clipPath>
</defs>
</svg>
