<svg width="36" height="36" viewBox="0 0 36 36" fill="none" xmlns="http://www.w3.org/2000/svg">
<path d="M15.7572 21.3714L21.6126 18L15.7572 14.6286V21.3732V21.3714ZM18 0C8.0604 0 0 8.0604 0 18C0 27.9396 8.0604 36 18 36C27.9396 36 36 27.9396 36 18C36 8.0604 27.9396 0 18 0ZM29.2464 18.018C29.2464 18.018 29.2464 21.6684 28.7838 23.4288C28.5246 24.3918 27.765 25.1514 26.8002 25.4106C25.0398 25.8732 17.9982 25.8732 17.9982 25.8732C17.9982 25.8732 10.9746 25.8732 9.1962 25.3908C8.2332 25.1316 7.4736 24.372 7.2126 23.4072C6.75 21.6648 6.75 17.9964 6.75 17.9964C6.75 17.9964 6.75 14.346 7.2126 12.5856C7.4718 11.6226 8.2494 10.8432 9.1962 10.584C10.9566 10.1214 17.9982 10.1214 17.9982 10.1214C17.9982 10.1214 25.0398 10.1214 26.8002 10.6038C27.7632 10.863 28.5228 11.6226 28.7838 12.5874C29.2662 14.3478 29.2464 18.0162 29.2464 18.0162V18.018Z" fill="white"/>
</svg>
